<?xml version="1.0" encoding="UTF-8"?>
<svg width="24px" height="17px" viewBox="0 0 24 17" version="1.1" xmlns="http://www.w3.org/2000/svg" xmlns:xlink="http://www.w3.org/1999/xlink">
    <!-- Generator: Sketch 51.1 (57501) - http://www.bohemiancoding.com/sketch -->
    <title>email</title>
    <desc>Created with Sketch.</desc>
    <defs></defs>
    <g id="Page-1" stroke="none" stroke-width="1" fill="none" fill-rule="evenodd" opacity="0.497154018" stroke-linecap="round" stroke-linejoin="round">
        <g id="Log-in-3" transform="translate(-629.000000, -359.000000)" stroke="#8891A7">
            <g id="Projects" transform="translate(-239.000000, -196.000000)">
                <g id="Contacts" transform="translate(420.000000, 393.000000)">
                    <g id="Group" transform="translate(0.000000, 111.000000)">
                        <g id="Email" transform="translate(0.000000, 28.000000)">
                            <g id="email-icon" transform="translate(448.704000, 23.430086)">
                                <g id="email">
                                    <g id="Group-7">
                                        <path d="M13.8812016,7.8663434 L17.8932345,11.6706026" id="Stroke-1" stroke-width="1.0812162"></path>
                                        <path d="M4.02281648,11.670384 L8.03557019,7.86612481" id="Stroke-2" stroke-width="1.0812162"></path>
                                        <path d="M20.0271228,15.8181268 L1.8900815,15.8181268 C0.928519894,15.8181268 0.146440179,15.0275462 0.146440179,14.0548042 L0.146440179,2.04016527 C0.146440179,1.06742327 0.928519894,0.277571333 1.8900815,0.277571333 L20.0271228,0.277571333 C20.9886844,0.277571333 21.7707641,1.06742327 21.7707641,2.04016527 L21.7707641,14.0548042 C21.7707641,15.0275462 20.9886844,15.8181268 20.0271228,15.8181268 Z" id="Stroke-3" stroke-width="1.0812162"></path>
                                        <path d="M21.1815013,1.46861559 L12.2384017,9.3503761 C11.8859252,9.66223645 11.4224439,9.81889528 10.9582417,9.81889528 C10.4947604,9.81889528 10.031279,9.66223645 9.67880257,9.35183339 L0.724890844,1.45549997" id="Stroke-5" stroke-width="1.0812162"></path>
                                    </g>
                                </g>
                            </g>
                        </g>
                    </g>
                </g>
            </g>
        </g>
    </g>
</svg>