<?xml version="1.0" encoding="UTF-8"?>
<svg width="20px" height="24px" viewBox="0 0 20 24" version="1.1" xmlns="http://www.w3.org/2000/svg" xmlns:xlink="http://www.w3.org/1999/xlink">
    <!-- Generator: Sketch 51.1 (57501) - http://www.bohemiancoding.com/sketch -->
    <title>password</title>
    <desc>Created with Sketch.</desc>
    <defs></defs>
    <g id="Page-1" stroke="none" stroke-width="1" fill="none" fill-rule="evenodd" opacity="0.497154018">
        <g id="Log-in-3" transform="translate(-631.000000, -443.000000)" stroke="#8891A7" stroke-width="1.35746693">
            <g id="Projects" transform="translate(-239.000000, -196.000000)">
                <g id="Contacts" transform="translate(420.000000, 393.000000)">
                    <g id="Group" transform="translate(0.000000, 111.000000)">
                        <g id="Password" transform="translate(346.000000, 136.000000)">
                            <path d="M106.621336,22 L121.377926,22 C122.270141,22 123,21.274 123,20.3881333 L123,10.7081333 C123,9.82153333 122.270141,9.09773333 121.377926,9.09773333 L120.236276,9.09773333 L120.236276,6.19666667 C120.236276,2.7808 117.437128,0 113.999631,0 C110.562134,0 107.762248,2.7808 107.762248,6.19666667 L107.762248,9.09773333 L106.621336,9.09773333 C105.729121,9.09773333 105,9.82153333 105,10.7081333 L105,20.3881333 C105,21.274 105.729121,22 106.621336,22 Z M119.724858,9.09773333 L108.274404,9.09773333 L119.724858,9.09773333 Z M113.999779,14.5612133 C114.633701,14.5612133 115.151761,15.07308 115.151761,15.7037467 C115.151761,16.3329467 114.633701,16.8470133 113.999779,16.8470133 C113.365856,16.8470133 112.847796,16.3329467 112.847796,15.7037467 C112.847796,15.07308 113.365856,14.5612133 113.999779,14.5612133 Z" id="password"></path>
                        </g>
                    </g>
                </g>
            </g>
        </g>
    </g>
</svg>